<svg width="40" height="40" viewBox="0 0 40 40" fill="none" xmlns="http://www.w3.org/2000/svg">
<path d="M39.8754 10.25C39.8754 9 39.7508 7.75 39.5016 6.625C39.0031 4.5 37.757 2.75 35.8879 1.5C34.891 0.875 33.8941 0.5 32.7726 0.25C31.9003 0.125 31.028 0 30.1558 0C30.0312 0 30.0312 0 29.9065 0H9.96885C9.71963 0 9.47041 0 9.22118 0C7.97508 0.125 6.72897 0.25 5.60748 0.625C3.36449 1.625 1.74455 3.125 0.747664 5.375C0.498442 6.125 0.249221 6.875 0.249221 7.75C0.124611 8.375 0 9 0 9.625V9.75V30.125C0 30.375 0 30.625 0 30.875C0.124611 32.25 0.249221 33.625 0.872274 34.875C1.99377 37.25 3.73832 38.75 6.23053 39.5C6.97819 39.75 7.60125 39.75 8.34891 39.875C9.34579 40 10.2181 40 11.215 40H29.5327C30.405 40 31.2773 40 32.1495 39.875C33.5203 39.75 34.7664 39.25 36.0125 38.5C37.3832 37.625 38.5047 36.375 39.1277 34.875C39.377 34.125 39.6262 33.375 39.7508 32.625C40 31.5 40 30.375 40 29.25C39.8754 22.875 39.8754 16.5 39.8754 10.25ZM29.1589 16.875V26.375C29.1589 27.125 29.0343 27.75 28.785 28.375C28.2866 29.375 27.5389 30 26.5421 30.25C25.919 30.375 25.4206 30.5 24.7975 30.5C23.1776 30.625 21.8069 29.5 21.5576 28C21.3084 26.75 21.9315 25.25 23.3022 24.625C23.8006 24.375 24.4237 24.25 25.0467 24.125C25.6698 24 26.2928 23.875 26.9159 23.75C27.4143 23.625 27.6636 23.375 27.7882 22.875C27.7882 22.75 27.7882 22.625 27.7882 22.5C27.7882 19.5 27.7882 16.5 27.7882 13.375C27.7882 13.25 27.7882 13.125 27.7882 13.125C27.6636 12.875 27.5389 12.75 27.2897 12.75C27.0405 12.75 26.7913 12.75 26.5421 12.875C25.296 13.125 24.0498 13.375 22.8037 13.625L16.6978 14.875C16.6978 14.875 16.6978 14.875 16.5732 14.875C16.0748 15 15.9502 15.25 15.9502 15.75C15.9502 15.875 15.9502 15.875 15.9502 16C15.9502 20.375 15.9502 24.625 15.9502 29C15.9502 29.75 15.8255 30.375 15.5763 31C15.0779 32.125 14.3302 32.75 13.2087 33C12.5857 33.125 12.0872 33.25 11.4642 33.25C9.84424 33.25 8.59813 32.25 8.2243 30.625C7.97508 29.25 8.59813 27.875 10.0935 27.125C10.7165 26.875 11.3396 26.75 11.9626 26.625C12.4611 26.5 12.9595 26.375 13.3333 26.375C13.9564 26.25 14.3302 25.875 14.3302 25.125V25C14.3302 20.125 14.3302 15.125 14.3302 10.25C14.3302 10 14.3302 9.875 14.4548 9.625C14.5794 9.125 14.9533 8.875 15.3271 8.75C15.7009 8.625 16.1994 8.5 16.5732 8.5C17.8193 8.25 19.0654 8 20.1869 7.75L23.9252 7C24.9221 6.75 26.0436 6.5 27.1651 6.25C27.5389 6.125 27.9128 6.125 28.2866 6.125C28.785 6.125 29.1589 6.375 29.1589 6.875C29.1589 7 29.1589 7.125 29.1589 7.25C29.1589 10.5 29.1589 13.625 29.1589 16.875Z" fill="black"/>
</svg>
