<svg width="467" height="59" viewBox="0 0 467 59" fill="none" xmlns="http://www.w3.org/2000/svg">
<path d="M0 2H467" stroke="black" stroke-width="4"/>
<path d="M0 16H467" stroke="black" stroke-width="4"/>
<path d="M0 30H467" stroke="black" stroke-width="4"/>
<path d="M0 42H467" stroke="black" stroke-width="4"/>
<path d="M0 56H467" stroke="black" stroke-width="4"/>
<path d="M47.7982 57.2855C47.2621 56.8032 46.9941 56.2316 46.9941 55.5707V51.1228C46.9941 50.444 46.7452 49.8724 46.2283 49.408C45.7113 48.9257 45.0987 48.6935 44.3903 48.6935H39.6038C38.8763 48.6935 38.2636 48.4612 37.7658 47.9789C37.2489 47.4966 37 46.925 37 46.2641V13.7537C37 13.1464 37.2489 12.5748 37.7658 12.0746C38.2828 11.5745 38.8954 11.3244 39.6038 11.3244H44.3711C45.0987 11.3244 45.7113 11.0922 46.2091 10.6099C46.7069 10.1276 46.975 9.59171 46.975 8.96651V4.42935C46.975 3.82201 47.243 3.2504 47.7791 2.75024C48.3152 2.25008 48.9087 2 49.5788 2H84.405C85.056 2 85.6686 2.25008 86.2047 2.75024C86.7408 3.2504 87.0088 3.82201 87.0088 4.42935V18.273C87.0088 18.8982 86.7408 19.452 86.2047 19.9522C85.6686 20.4523 85.056 20.7024 84.405 20.7024H79.542C78.8719 20.7024 78.2975 20.4523 77.7806 19.9522C77.2636 19.452 77.0147 18.8982 77.0147 18.273V13.7359C77.0147 13.1285 76.7467 12.5569 76.2106 12.0568C75.6745 11.5566 75.0619 11.3065 74.4109 11.3065H49.5979C48.9278 11.3065 48.3343 11.5566 47.7982 12.0568C47.2621 12.5569 46.9941 13.1285 46.9941 13.7359V46.2284C46.9941 46.9072 47.2621 47.4788 47.7982 47.9432C48.3343 48.4255 48.9278 48.6577 49.5979 48.6577H74.43C75.081 48.6577 75.6937 48.4255 76.2297 47.9432C76.7658 47.4609 77.0339 46.8893 77.0339 46.2284V41.7805C77.0339 41.1018 77.2828 40.5301 77.7997 40.0657C78.3166 39.6013 78.891 39.3512 79.5611 39.3512H84.4242C85.0751 39.3512 85.6878 39.5834 86.2239 40.0657C86.7599 40.548 87.028 41.1196 87.028 41.7805V46.2284C87.028 46.9072 86.7599 47.4788 86.2239 47.9432C85.6878 48.4255 85.0751 48.6577 84.4242 48.6577H79.5611C78.891 48.6577 78.3166 48.89 77.7997 49.3722C77.2828 49.8545 77.0339 50.4262 77.0339 51.0871V55.5349C77.0339 56.2137 76.7658 56.7853 76.2297 57.2498C75.6937 57.7321 75.081 57.9643 74.43 57.9643H49.5979C48.9278 57.9643 48.3343 57.7321 47.7982 57.2498V57.2855Z" fill="black"/>
<path d="M107.782 57.2855C107.265 56.8032 107.016 56.2316 107.016 55.5707V4.42935C107.016 3.82201 107.265 3.2504 107.782 2.75024C108.299 2.25008 108.912 2 109.62 2H114.387C115.115 2 115.727 2.25008 116.225 2.75024C116.742 3.2504 116.991 3.82201 116.991 4.42935V18.273C116.991 18.8982 117.259 19.452 117.795 19.9522C118.331 20.4523 118.925 20.7024 119.595 20.7024H144.427C145.078 20.7024 145.691 20.4523 146.227 19.9522C146.763 19.452 147.031 18.8982 147.031 18.273V4.42935C147.031 3.82201 147.28 3.2504 147.797 2.75024C148.314 2.25008 148.888 2 149.558 2H154.421C155.072 2 155.685 2.25008 156.221 2.75024C156.757 3.2504 157.025 3.82201 157.025 4.42935V55.5528C157.025 56.2316 156.757 56.8032 156.221 57.2676C155.685 57.7499 155.072 57.9821 154.421 57.9821H149.558C148.888 57.9821 148.314 57.7499 147.797 57.2676C147.28 56.7853 147.031 56.2137 147.031 55.5528V32.4561C147.031 31.7774 146.763 31.2057 146.227 30.7413C145.691 30.259 145.078 30.0268 144.427 30.0268H119.595C118.925 30.0268 118.331 30.259 117.795 30.7413C117.259 31.2236 116.991 31.7952 116.991 32.4561V55.5528C116.991 56.2316 116.742 56.8032 116.225 57.2676C115.708 57.7499 115.096 57.9821 114.387 57.9821H109.62C108.892 57.9821 108.28 57.7499 107.782 57.2676V57.2855Z" fill="black"/>
<path d="M187.811 57.2855C187.275 56.8032 187.007 56.2316 187.007 55.5707V51.1228C187.007 50.444 186.758 49.8724 186.241 49.408C185.724 48.9257 185.112 48.6935 184.403 48.6935H179.636C178.909 48.6935 178.296 48.4612 177.798 47.9789C177.281 47.4966 177.032 46.925 177.032 46.2641V13.7537C177.032 13.1464 177.281 12.5748 177.798 12.0746C178.315 11.5745 178.928 11.3244 179.636 11.3244H184.403C185.131 11.3244 185.744 11.0922 186.241 10.6099C186.739 10.1276 187.007 9.59171 187.007 8.96651V4.42935C187.007 3.82201 187.275 3.2504 187.811 2.75024C188.347 2.25008 188.941 2 189.611 2H214.443C215.094 2 215.707 2.25008 216.243 2.75024C216.779 3.2504 217.047 3.82201 217.047 4.42935V8.96651C217.047 9.59171 217.296 10.1276 217.813 10.6099C218.33 11.0922 218.904 11.3244 219.574 11.3244H224.437C225.088 11.3244 225.701 11.5745 226.237 12.0746C226.773 12.5748 227.041 13.1464 227.041 13.7537V46.2463C227.041 46.925 226.773 47.4966 226.237 47.9611C225.701 48.4434 225.088 48.6756 224.437 48.6756H219.574C218.904 48.6756 218.33 48.9078 217.813 49.3901C217.296 49.8724 217.047 50.444 217.047 51.1049V55.5528C217.047 56.2316 216.779 56.8032 216.243 57.2676C215.707 57.7499 215.094 57.9821 214.443 57.9821H189.611C188.941 57.9821 188.347 57.7499 187.811 57.2676V57.2855ZM214.443 48.6756C215.094 48.6756 215.707 48.4434 216.243 47.9611C216.779 47.4788 217.047 46.9072 217.047 46.2463V13.7537C217.047 13.1464 216.779 12.5748 216.243 12.0746C215.707 11.5745 215.094 11.3244 214.443 11.3244H189.611C188.941 11.3244 188.347 11.5745 187.811 12.0746C187.275 12.5748 187.007 13.1464 187.007 13.7537V46.2463C187.007 46.925 187.275 47.4966 187.811 47.9611C188.347 48.4434 188.941 48.6756 189.611 48.6756H214.443Z" fill="black"/>
<path d="M247.795 57.2855C247.278 56.8032 247.029 56.2316 247.029 55.5707V4.42935C247.029 3.82201 247.278 3.2504 247.795 2.75024C248.312 2.25008 248.925 2 249.633 2H284.383C285.034 2 285.646 2.25008 286.182 2.75024C286.719 3.2504 286.987 3.82201 286.987 4.42935L287.082 8.96651C287.082 9.59171 287.331 10.1276 287.848 10.6099C288.346 11.0922 288.939 11.3244 289.59 11.3244H294.415C295.066 11.3244 295.66 11.5745 296.196 12.0746C296.732 12.5748 297 13.1285 297 13.7537V27.5439C297 28.1512 296.732 28.7228 296.196 29.223C295.66 29.7231 295.047 29.9732 294.396 29.9732H289.533C288.863 29.9732 288.289 30.2054 287.772 30.6877C287.255 31.17 287.006 31.7416 287.006 32.4204V46.2463C287.006 46.925 287.255 47.4967 287.772 47.9789C288.289 48.4612 288.863 48.6935 289.533 48.6935H294.396C295.047 48.6935 295.66 48.9257 296.196 49.408C296.732 49.8903 297 50.4619 297 51.1228V55.5707C297 56.2494 296.732 56.8211 296.196 57.2855C295.66 57.7678 295.047 58 294.396 58H289.533C288.863 58 288.289 57.7678 287.772 57.2855C287.255 56.8032 287.006 56.2316 287.006 55.5707L287.101 51.1228C287.101 50.444 286.833 49.8724 286.297 49.408C285.761 48.9257 285.149 48.6935 284.498 48.6935H279.635C278.965 48.6935 278.371 48.4612 277.835 47.9789C277.299 47.4967 277.031 46.925 277.031 46.2463V41.7627C277.031 41.0839 276.782 40.5123 276.265 40.03C275.748 39.5477 275.174 39.3155 274.504 39.3155H259.666C258.995 39.3155 258.402 39.5477 257.866 40.03C257.33 40.5123 257.062 41.0839 257.062 41.7627V55.5885C257.062 56.2673 256.813 56.8389 256.296 57.3212C255.779 57.8035 255.166 58.0357 254.458 58.0357H249.691C248.963 58.0357 248.35 57.8035 247.853 57.3212L247.795 57.2855ZM284.383 29.9553C285.034 29.9553 285.627 29.7053 286.182 29.2051C286.719 28.7049 286.987 28.1512 286.987 27.526V13.7359C286.987 13.1285 286.719 12.5569 286.182 12.0568C285.646 11.5566 285.053 11.3065 284.383 11.3065H259.627C258.976 11.3065 258.364 11.5566 257.828 12.0568C257.291 12.5569 257.023 13.1107 257.023 13.7359V27.526C257.023 28.1333 257.291 28.7049 257.828 29.2051C258.364 29.7053 258.957 29.9553 259.627 29.9553H284.383Z" fill="black"/>
<path d="M317.792 57.2855C317.275 56.8032 317.026 56.2316 317.026 55.5707V4.42935C317.026 3.82201 317.275 3.2504 317.792 2.75024C318.309 2.25008 318.922 2 319.63 2H354.456C355.107 2 355.72 2.25008 356.256 2.75024C356.792 3.2504 357.06 3.82201 357.06 4.42935V8.96651C357.06 9.59171 357.309 10.1276 357.826 10.6099C358.343 11.0922 358.917 11.3244 359.588 11.3244H364.451C365.101 11.3244 365.714 11.5745 366.25 12.0746C366.786 12.5748 367.054 13.1464 367.054 13.7537V46.2463C367.054 46.925 366.786 47.4966 366.25 47.9611C365.714 48.4434 365.101 48.6756 364.451 48.6756H359.588C358.917 48.6756 358.343 48.9078 357.826 49.3901C357.309 49.8724 357.06 50.444 357.06 51.1049V55.5528C357.06 56.2316 356.792 56.8032 356.256 57.2676C355.72 57.7499 355.107 57.9821 354.456 57.9821H319.63C318.903 57.9821 318.29 57.7499 317.792 57.2676V57.2855ZM354.456 48.6756C355.107 48.6756 355.72 48.4434 356.256 47.9611C356.792 47.4788 357.06 46.9072 357.06 46.2463V13.7537C357.06 13.1464 356.792 12.5748 356.256 12.0746C355.72 11.5745 355.107 11.3244 354.456 11.3244H329.624C328.954 11.3244 328.361 11.5745 327.825 12.0746C327.289 12.5748 327.02 13.1464 327.02 13.7537V46.2463C327.02 46.925 327.289 47.4966 327.825 47.9611C328.361 48.4434 328.954 48.6756 329.624 48.6756H354.456Z" fill="black"/>
<path d="M387.809 57.2855C387.292 56.8032 387.043 56.2316 387.043 55.5707V51.1228C387.043 50.444 387.292 49.8724 387.809 49.408C388.326 48.9257 388.938 48.6935 389.647 48.6935H414.479C415.13 48.6935 415.723 48.4612 416.24 47.9789C416.757 47.4966 417.006 46.925 417.006 46.2641V41.8163C417.006 41.1375 416.757 40.5659 416.24 40.1014C415.723 39.6191 415.149 39.3869 414.479 39.3869H409.616C408.946 39.3869 408.352 39.1368 407.816 38.6367C407.28 38.1365 407.012 37.5828 407.012 36.9576V32.5097C407.012 31.8309 406.763 31.2593 406.246 30.7949C405.729 30.3126 405.117 30.0804 404.408 30.0804H399.641C398.971 30.0804 398.377 29.8303 397.841 29.3123C397.305 28.8121 397.037 28.2405 397.037 27.6153V23.0424C397.037 22.4172 396.788 21.8635 396.271 21.399C395.754 20.9167 395.142 20.6845 394.433 20.6845H389.666C388.938 20.6845 388.326 20.4344 387.828 19.9343C387.311 19.4341 387.062 18.8804 387.062 18.273V13.7716C387.062 13.1643 387.311 12.6105 387.828 12.1104C388.345 11.6102 388.958 11.3601 389.666 11.3601H394.433C395.161 11.3601 395.773 11.1279 396.271 10.6456C396.769 10.1633 397.037 9.62743 397.037 9.00223V4.42935C397.037 3.82201 397.305 3.2504 397.841 2.75024C398.377 2.25008 398.971 2 399.641 2H424.396C425.047 2 425.641 2.25008 426.196 2.75024C426.732 3.2504 427 3.82201 427 4.42935V8.96651C427 9.59171 426.732 10.1276 426.196 10.6099C425.66 11.0922 425.067 11.3244 424.396 11.3244H399.641C398.99 11.3244 398.377 11.5745 397.841 12.0746C397.305 12.5748 397.037 13.1285 397.037 13.7359V18.2373C397.037 18.8447 397.305 19.3984 397.841 19.8986C398.377 20.3987 398.971 20.6488 399.641 20.6488H404.408C405.136 20.6488 405.748 20.881 406.246 21.3633C406.763 21.8456 407.012 22.3994 407.012 23.0067V27.5796C407.012 28.2048 407.28 28.7585 407.816 29.2766C408.352 29.7767 408.946 30.0447 409.616 30.0447H414.479C415.13 30.0447 415.723 30.2769 416.24 30.7592C416.757 31.2415 417.006 31.8131 417.006 32.474V36.9218C417.006 37.547 417.274 38.1008 417.81 38.601C418.346 39.1011 418.94 39.3512 419.591 39.3512H424.416C425.067 39.3512 425.66 39.5834 426.196 40.0657C426.732 40.548 427 41.1196 427 41.7805V46.2284C427 46.9072 426.732 47.4788 426.196 47.9432C425.66 48.4255 425.067 48.6577 424.416 48.6577H419.591C418.94 48.6577 418.346 48.89 417.81 49.3722C417.274 49.8545 417.006 50.4262 417.006 51.0871V55.5349C417.006 56.2137 416.757 56.7853 416.24 57.2498C415.723 57.7321 415.149 57.9643 414.479 57.9643H389.647C388.919 57.9643 388.307 57.7321 387.809 57.2498V57.2855Z" fill="black"/>
</svg>
