<svg width="38" height="227" viewBox="0 0 38 227" fill="none" xmlns="http://www.w3.org/2000/svg">
<g clip-path="url(#clip0_1021_38)">
<path d="M20.3449 0.047287C20.9625 2.0086 21.8348 3.89268 22.1977 5.90573C25.4106 23.4624 25.0801 41.1825 24.4438 58.929C24.0438 70.3265 24.2303 81.7477 24.1618 93.1442C24.1638 93.8581 24.2169 94.5718 24.2445 95.2856C24.485 107.726 24.9548 120.141 24.9148 132.583C24.8753 145.203 24.1986 157.851 24.0316 170.471C23.8858 181.588 23.9694 192.703 24.1295 203.819C24.1902 207.133 24.8373 210.445 25.2039 213.759C25.4591 213.834 25.7398 213.935 25.995 214.011C28.9902 209.49 31.9852 204.943 34.9804 200.421C35.4396 200.522 35.8988 200.623 36.3581 200.749C36.5932 202.66 36.9811 204.546 37.0632 206.458C37.3671 214.437 30.4356 224.222 23.201 226.257C20.6536 226.978 19.1463 225.937 17.9673 223.825C16.7371 221.636 15.5324 219.421 14.0478 217.412C9.1588 210.797 3.15037 204.976 0.601328 196.443C3.25863 198.424 6.01754 200.277 8.54781 202.411C11.1803 204.621 13.5585 207.062 16.4986 209.832C16.4898 206.849 16.4315 204.351 16.4752 201.852C16.9973 179.951 17.7999 158.048 17.9651 136.147C18.0727 120.671 17.1094 105.173 17.013 89.6979C16.9565 79.1176 17.7157 68.5094 17.8122 57.9286C17.9719 42.8605 17.8512 27.7678 17.8325 12.7002C17.8256 10.3547 17.6402 8.00969 17.8118 5.66364C17.9593 3.80207 18.5149 1.99028 18.8664 0.153604C19.3508 0.126688 19.835 0.0742775 20.3194 0.0473617L20.3449 0.047287Z" fill="black"/>
</g>
<defs>
<clipPath id="clip0_1021_38">
<rect width="226.447" height="36.4578" fill="white" transform="translate(36.4575) rotate(89.8319)"/>
</clipPath>
</defs>
</svg>
