<svg width="40" height="40" viewBox="0 0 40 40" fill="none" xmlns="http://www.w3.org/2000/svg">
<path fill-rule="evenodd" clip-rule="evenodd" d="M0 19.7148C0 11.8395 0 7.9019 1.87661 5.06573C2.71461 3.79924 3.79924 2.71461 5.06573 1.87661C7.9019 0 11.8395 0 19.7148 0C27.5901 0 31.5277 0 34.3639 1.87661C35.6304 2.71461 36.715 3.79924 37.553 5.06573C39.4296 7.9019 39.4296 11.8395 39.4296 19.7148C39.4296 27.5901 39.4296 31.5277 37.553 34.3639C36.715 35.6304 35.6304 36.715 34.3639 37.553C31.5277 39.4296 27.5901 39.4296 19.7148 39.4296C11.8395 39.4296 7.9019 39.4296 5.06573 37.553C3.79924 36.715 2.71461 35.6304 1.87661 34.3639C0 31.5277 0 27.5901 0 19.7148ZM29.9214 19.7153C29.9214 25.3523 25.3517 29.9219 19.7148 29.9219C14.0778 29.9219 9.50817 25.3523 9.50817 19.7153C9.50817 14.0784 14.0778 9.50873 19.7148 9.50873C25.3517 9.50873 29.9214 14.0784 29.9214 19.7153ZM19.7148 26.4688C23.4446 26.4688 26.4682 23.4451 26.4682 19.7153C26.4682 15.9855 23.4446 12.9619 19.7148 12.9619C15.985 12.9619 12.9613 15.9855 12.9613 19.7153C12.9613 23.4451 15.985 26.4688 19.7148 26.4688ZM30.3244 11.3943C31.6489 11.3943 32.7226 10.3206 32.7226 8.99607C32.7226 7.67156 31.6489 6.59782 30.3244 6.59782C28.9999 6.59782 27.9261 7.67156 27.9261 8.99607C27.9261 10.3206 28.9999 11.3943 30.3244 11.3943Z" fill="black"/>
</svg>
